<svg xmlns="http://www.w3.org/2000/svg" viewBox="0 0 38 24" width="38" height="24" role="img" aria-label="Visa">
  <rect width="38" height="24" rx="3" fill="#FFFFFF"/>
  <path d="M15.4 16.5L17.2 5.5H19.9L18.1 16.5H15.4Z" fill="#1434CB"/>
  <path d="M25.7 5.7C25.2 5.5 24.3 5.3 23.3 5.3C20.6 5.3 18.7 6.7 18.7 8.7C18.7 10.2 20.1 11 21.2 11.5C22.3 12 22.7 12.4 22.7 12.9C22.7 13.7 21.7 14.1 20.8 14.1C19.7 14.1 19.1 13.9 18.3 13.5L18 13.3L17.6 15.7C18.3 16 19.5 16.3 20.7 16.3C23.6 16.3 25.5 14.9 25.5 12.7C25.5 11 24.4 10.1 23 9.4C22 8.9 21.4 8.6 21.4 8.1C21.4 7.6 22 7.2 23.2 7.2C24.2 7.2 24.9 7.4 25.5 7.7L25.8 7.8L26.2 5.7L25.7 5.7Z" fill="#1434CB"/>
  <path d="M29.5 12.8L30.6 9.8C30.6 9.8 30.8 8.8 30.9 8.5L31.1 9.8L31.8 12.8H29.5ZM33.2 5.5H31.1C30.5 5.5 30 5.8 29.8 6.4L25.4 16.5H28.2L28.8 14.8H32.2L32.5 16.5H35L33.2 5.5Z" fill="#1434CB"/>
  <path d="M12.9 5.5L10.3 13L10 11.4C9.5 9.7 8 7.8 6.3 6.8L8.7 16.5H11.5L15.6 5.5H12.9Z" fill="#1434CB"/>
  <path d="M8.2 5.5H3.7L3.6 5.7C6.9 6.5 9.3 8.5 10.3 11.2L9.2 6.1C9 5.6 8.6 5.5 8.2 5.5Z" fill="#F9A01B"/>
</svg>
